HIERARCHY
ROOT Hips
{
    OFFSET 0.000000 0.000000 0.000000
    CHANNELS 6 Xposition Yposition Zposition Zrotation Xrotation Yrotation
    JOINT Spine
    {
        OFFSET -0.000000 7.856138 0.000000
        CHANNELS 3 Zrotation Xrotation Yrotation
        JOINT Spine1
        {
            OFFSET -0.000000 20.830866 0.000000
            CHANNELS 3 Zrotation Xrotation Yrotation
            JOINT Neck
            {
                OFFSET -0.000000 20.745317 1.885938
                CHANNELS 3 Zrotation Xrotation Yrotation
                JOINT Head
                {
                    OFFSET -0.000000 13.412918 -1.916131
                    CHANNELS 3 Zrotation Xrotation Yrotation
                    End Site
                    {
                        OFFSET -0.000000 23.951641 0.000000
                    }
                }
            }
            JOINT LeftShoulder
            {
                OFFSET 3.826675 19.078362 -0.073511
                CHANNELS 3 Zrotation Xrotation Yrotation
                JOINT LeftArm
                {
                    OFFSET 10.442133 0.000000 0.000000
                    CHANNELS 3 Zrotation Xrotation Yrotation
                    JOINT LeftForeArm
                    {
                        OFFSET 37.051945 0.000000 0.000000
                        CHANNELS 3 Zrotation Xrotation Yrotation
                        JOINT LeftHand
                        {
                            OFFSET 24.394852 0.000000 0.000000
                            CHANNELS 3 Zrotation Xrotation Yrotation
                            End Site
                            {
                                OFFSET 14.370985 0.000000 0.000000
                            }
                        }
                    }
                }
            }
            JOINT RightShoulder
            {
                OFFSET -3.827599 19.078362 -0.073511
                CHANNELS 3 Zrotation Xrotation Yrotation
                JOINT RightArm
                {
                    OFFSET -10.442133 0.000000 0.000000
                    CHANNELS 3 Zrotation Xrotation Yrotation
                    JOINT RightForeArm
                    {
                        OFFSET -37.051945 0.000000 0.000000
                        CHANNELS 3 Zrotation Xrotation Yrotation
                        JOINT RightHand
                        {
                            OFFSET -24.394852 0.000000 0.000000
                            CHANNELS 3 Zrotation Xrotation Yrotation
                            End Site
                            {
                                OFFSET -14.370985 0.000000 0.000000
                            }
                        }
                    }
                }
            }
        }
    }
    JOINT LeftUpLeg
    {
        OFFSET 9.580656 0.000000 0.000000
        CHANNELS 3 Zrotation Xrotation Yrotation
        JOINT LeftLeg
        {
            OFFSET -0.000000 -43.769192 0.000000
            CHANNELS 3 Zrotation Xrotation Yrotation
            JOINT LeftFoot
            {
                OFFSET -0.000000 -42.531967 0.000000
                CHANNELS 3 Zrotation Xrotation Yrotation
                JOINT LeftToeBase
                {
                    OFFSET -0.000000 -6.227426 14.370985
                    CHANNELS 3 Zrotation Xrotation Yrotation
                    End Site
                    {
                        OFFSET -0.000000 0.000000 3.832262
                    }
                }
            }
        }
    }
    JOINT RightUpLeg
    {
        OFFSET -9.580656 0.000000 0.000000
        CHANNELS 3 Zrotation Xrotation Yrotation
        JOINT RightLeg
        {
            OFFSET -0.000000 -43.769192 0.000000
            CHANNELS 3 Zrotation Xrotation Yrotation
            JOINT RightFoot
            {
                OFFSET -0.000000 -42.531967 0.000000
                CHANNELS 3 Zrotation Xrotation Yrotation
                JOINT RightToeBase
                {
                    OFFSET -0.000000 -6.227426 14.370985
                    CHANNELS 3 Zrotation Xrotation Yrotation
                    End Site
                    {
                        OFFSET -0.000000 0.000000 3.832262
                    }
                }
            }
        }
    }
}
MOTION
Frames:    4
Frame Time:    0.008333
-187.453247    93.619736    15.334121    -1.211825    -0.948860    86.501709    0.279446    -6.532436    1.501769    4.219195    7.021562    1.226858    -1.354875    2.513675    -2.734118    4.351392    2.070680    -2.130913    10.663898    -0.414857    7.443333    -13.719122    8.891328    -11.583937    4.827415    -5.430559    -2.097283    -1.130426    -5.388439    4.669787    -18.337919    1.022992    -1.662150    19.918051    6.847714    3.974085    -2.939501    1.655476    2.661325    -6.354334    1.961742    -4.288149    5.364238    4.546993    0.592541    -3.522898    0.677101    -1.726493    4.032170    -6.711541    19.835928    0.000000    0.000000    0.000000    -0.991657    0.398352    -0.160228    3.006538    5.196373    0.756751    -1.427874    -7.773091    -12.658099    0.000000    0.000000    0.000000    
-187.464355    93.618591    15.333263    -1.211211    -0.945583    86.537148    0.256804    -6.499373    1.502409    4.235516    6.983763    1.229226    -1.440630    2.498929    -2.767288    4.462327    2.147177    -2.143498    10.635584    -0.405207    7.448225    -13.695231    8.943543    -11.604586    4.849313    -5.497160    -1.985525    -1.136477    -5.459409    4.649380    -18.328758    1.048600    -1.666411    19.954161    6.807180    3.920074    -2.917640    1.640778    2.642326    -6.409925    1.950341    -4.326971    5.362071    4.523040    0.570742    -3.519906    0.697281    -1.701184    4.021239    -6.725063    19.803904    0.000000    0.000000    0.000000    -0.996634    0.392697    -0.168380    3.011175    5.187281    0.606878    -1.436587    -7.763161    -12.513141    0.000000    0.000000    0.000000    
-187.472076    93.617355    15.333879    -1.206335    -0.955245    86.561371    0.254867    -6.510589    1.505806    4.243811    7.034765    1.230357    -1.438736    2.446373    -2.769028    4.421536    2.221659    -2.152795    10.647005    -0.427210    7.470601    -13.712740    8.909862    -11.602819    4.854643    -5.516151    -1.928960    -1.354667    -5.488830    4.592372    -18.341162    1.026854    -1.699953    20.005552    6.783341    3.891448    -2.893829    1.614374    2.605478    -6.548957    1.931256    -4.388952    5.376518    4.510205    0.552926    -3.524722    0.718596    -1.709931    4.020850    -6.746378    19.811253    0.000000    0.000000    0.000000    -0.985757    0.387672    -0.170283    3.009198    5.207575    0.711232    -1.433463    -7.760943    -12.638735    0.000000    0.000000    0.000000    
-187.482010    93.618164    15.332517    -1.205352    -0.960722    86.584625    0.243828    -6.486379    1.506112    4.271775    7.003712    1.230746    -1.421417    2.397010    -2.752384    4.311695    2.377186    -2.156429    10.609669    -0.431336    7.472920    -13.693464    8.936055    -11.576605    4.768677    -5.283648    -1.886989    -1.211287    -5.251305    4.357171    -18.348701    1.054424    -1.719525    20.037317    6.745332    3.872023    -2.875768    1.565753    2.589335    -6.520238    1.881353    -4.399814    5.385996    4.495719    0.541642    -3.528913    0.730156    -1.756682    4.049306    -6.742478    19.837280    0.000000    0.000000    0.000000    -0.983245    0.378031    -0.175991    3.012011    5.233822    0.750879    -1.389767    -7.787882    -12.689929    0.000000    0.000000    0.000000    
